<?xml version="1.0" encoding="UTF-8"?>
<svg width="256px" height="256px" viewBox="0 0 256 256" version="1.1" xmlns="http://www.w3.org/2000/svg" xmlns:xlink="http://www.w3.org/1999/xlink" preserveAspectRatio="xMidYMid">
    <g>
        <path d="M128,0 C198.692448,0 256,57.307552 256,128 C256,198.692448 198.692448,256 128,256 C57.307552,256 0,198.692448 0,128 C0,57.307552 57.307552,0 128,0 Z" fill="#FFFFFF"></path>
        <path d="M77.7777778,128.507937 L77.7777778,184.888889 C77.7777778,186.301587 78.9841265,187.428571 80.3174603,187.428571 L128.507937,187.428571 L128.507937,128.507937 L77.7777778,128.507937 Z M128.507937,68.5714286 L80.3174603,68.5714286 C78.9841265,68.5714286 77.7777778,69.6984127 77.7777778,71.1111111 L77.7777778,128.507937 L128.507937,128.507937 L128.507937,68.5714286 Z M128.507937,68.5714286 L128.507937,128.507937 L179.238095,128.507937 L179.238095,71.1111111 C179.238095,69.6984127 178.031746,68.5714286 176.698413,68.5714286 L128.507937,68.5714286 Z M128.507937,187.428571 L176.698413,187.428571 C178.031746,187.428571 179.238095,186.301587 179.238095,184.888889 L179.238095,128.507937 L128.507937,128.507937 L128.507937,187.428571 Z" fill="#FC0"></path>
    </g>
</svg> 